<svg width="1092" height="1092" viewBox="0 0 1092 1092" fill="none" xmlns="http://www.w3.org/2000/svg">
<line x1="429" y1="1025" x2="429" y2="719" stroke="#679F69" stroke-width="50"/>
<path d="M853 1023.5L853 518.5" stroke="#679F69" stroke-width="50"/>
<line x1="452" y1="744" x2="645" y2="744" stroke="#679F69" stroke-width="50"/>
<line x1="663" y1="719" x2="663" y2="1021" stroke="#679F69" stroke-width="50"/>
<line x1="638" y1="1000" x2="878" y2="1000" stroke="#679F69" stroke-width="50"/>
<line x1="828" y1="500" x2="972" y2="500" stroke="#679F69" stroke-width="50"/>
<path d="M528 77.3225L807.237 355.915" stroke="#679F69" stroke-width="50"/>
<path d="M894.238 435.531L955.615 493.922" stroke="#679F69" stroke-width="50"/>
<path d="M136.652 493.647L563 77" stroke="#679F69" stroke-width="50"/>
<line x1="452" y1="1000" x2="214" y2="1000" stroke="#679F69" stroke-width="50"/>
<line y1="-25" x2="505" y2="-25" transform="matrix(4.37114e-08 -1 -1 -4.37114e-08 214 1025)" stroke="#679F69" stroke-width="50"/>
<line y1="-25" x2="144" y2="-25" transform="matrix(-1 0 0 1 264 525)" stroke="#679F69" stroke-width="50"/>
<line x1="902" y1="435" x2="902" y2="229" stroke="#679F69" stroke-width="50"/>
<line x1="927" y1="254" x2="775" y2="254" stroke="#679F69" stroke-width="50"/>
<line x1="800" y1="230" x2="800" y2="350" stroke="#679F69" stroke-width="50"/>
<path d="M972 475V525H1022L972 475Z" fill="#679F69"/>
<path d="M120 475V525H70L120 475Z" fill="#679F69"/>
<rect x="877" y="403" width="20" height="51" fill="#679F69"/>
<rect x="790" y="324" width="35" height="50" fill="#679F69"/>
<path d="M789.839 373.344C789.839 373.451 789.777 373.501 789.902 373.501C789.985 373.501 790.028 373.617 790.028 373.689" stroke="#679F69" stroke-width="0.5" stroke-linecap="round"/>
<rect x="264" y="374" width="158" height="618" fill="#D9D9D9"/>
<rect x="670" y="374" width="158" height="618" fill="#D9D9D9"/>
<rect x="388" y="242" width="316" height="495" fill="#D9D9D9"/>
<path d="M829.196 468.526V997.277" stroke="#679F69" stroke-width="20" stroke-linecap="round"/>
<path d="M674.391 991.246H829.197" stroke="#679F69" stroke-width="20" stroke-linecap="round"/>
<path d="M674.391 729.886V988.23" stroke="#679F69" stroke-width="20" stroke-linecap="round"/>
<path d="M411.021 726.87H666.349" stroke="#679F69" stroke-width="20" stroke-linecap="round"/>
<path d="M404.989 731.896H682.433" stroke="#679F69" stroke-width="20" stroke-linecap="round"/>
<path d="M423.083 733.907V991.246" stroke="#679F69" stroke-width="20" stroke-linecap="round"/>
<path d="M270.289 991.246H421.073" stroke="#679F69" stroke-width="20" stroke-linecap="round"/>
<path d="M270.289 478.579V988.23" stroke="#679F69" stroke-width="20" stroke-linecap="round"/>
<path d="M196.907 470.537H280.341" stroke="#679F69" stroke-width="20" stroke-linecap="round"/>
<path d="M212.991 461.49C217.638 459.377 220.406 451.205 225.053 448.198C232.96 443.083 239.571 434.797 247.169 429.099C264.026 416.456 277.232 400.964 288.16 383.082C292.4 376.143 299.564 370.142 306.254 365.434C308.557 363.814 310.784 360.609 312.508 358.454C313.148 357.654 314.269 357.196 315.022 356.443C315.062 356.402 316.426 355.129 315.189 355.382C308.813 356.686 302.277 363.023 297.318 366.663C275.01 383.039 209.119 433.43 230.08 415.361C245.942 401.687 265.397 393.182 282.352 381.071C294.014 372.741 308.612 368.948 320.048 360.464C327.226 355.138 333.383 349.255 339.65 342.872C344.813 337.614 350.377 331.899 354.896 326.063C363.746 314.632 375.386 305.993 384.662 295.068C389.523 289.343 396.266 284.164 399.74 277.533C405.359 266.805 416.938 259.451 423.307 249.163C427.009 243.183 433.093 238.105 438.162 233.302C440.895 230.713 443.615 227.904 446.707 225.763C450.822 222.914 453.675 219.035 457.485 216.214C469.565 207.265 480.536 196.386 491.439 186.057C501.68 176.355 513.113 167.364 524.054 158.413C527.977 155.203 531.764 150.345 536.116 147.858C540.021 145.627 543.184 142.466 546.28 139.369C551.518 134.132 556.282 135.65 559.292 142.273C561.349 146.798 564.384 150.053 566.832 154.336C570.128 160.104 575.825 165.391 580.681 169.805C586.387 174.992 591.457 181.531 596.989 187.062C603.189 193.262 608.904 199.983 615.083 206.161C620.413 211.491 623.979 217.242 624.13 224.926C624.306 233.89 624.13 242.878 624.13 251.843C624.13 261.858 624.13 291.904 624.13 281.889C624.13 272.637 624.016 274.025 636.193 273.288C648.815 272.525 661.734 272.734 674.28 270.999C677.953 270.491 675.905 269.91 674.615 268.709C671.601 265.903 668.013 264.076 665.121 261.058C657.262 252.857 649.108 243.199 643.453 233.302C641.793 230.399 630.822 218.923 631.837 215.878C631.974 215.466 637.844 222.232 638.259 222.803C641.773 227.636 645.827 231.88 650.042 236.095C654.554 240.606 658.98 245.869 663.892 249.889C671.456 256.077 677.788 263.33 683.438 270.999C692.231 282.931 701.353 294.198 711.138 305.288C718.517 313.65 725.35 322.485 732.75 330.81C741.27 340.394 751.201 348.775 759.389 358.733C764.78 365.29 769.79 372.205 775.417 378.558C780.858 384.701 785.128 392.081 790.775 397.937C794.77 402.081 798.237 406.864 802.055 411.228C806.659 416.49 809.607 423.616 814.342 428.54C815.581 429.829 819.978 436.994 821.657 436.247C829.684 432.68 816.639 415.979 814.342 412.233C809.007 403.536 802.068 394.682 793.734 388.555C790.351 386.067 786.094 384.81 782.956 382.021C779.98 379.375 778.005 375.999 775.696 372.806C771.337 366.777 762.805 361.001 759.836 354.321C759.587 353.762 757.754 350.77 758.272 350.468C760.036 349.439 763.996 349.92 765.755 349.909C773.422 349.86 781.101 349.85 788.764 350.132C797.099 350.44 805.375 350.82 813.56 352.478C815.596 352.891 819.489 352.256 817.134 355.27C812.353 361.39 805.443 365.98 799.822 371.298C796.746 374.207 794.207 377.072 790.439 379.061C786.061 381.371 797.18 371.803 800.715 368.338C819.068 350.351 838.873 326.758 844.387 300.932C845.222 297.021 845.28 293.117 845.28 289.149C845.28 286.358 833.855 287.561 831.877 287.585C830.207 287.605 824.493 289.37 826.181 288.032C832.216 283.246 838.038 277.235 839.137 269.267C839.901 263.732 837.544 271.322 837.127 272.451C834.007 280.9 833.141 288.38 833.218 297.302C833.259 302.193 833.625 304.867 838.802 306.237C840.835 306.776 847.528 307.781 849.134 306.014C854.901 299.67 844.264 291.949 838.132 293.728C828.591 296.496 805.779 323.678 822.607 330.14C836.006 335.285 852.528 327.218 862.146 318.189C868.348 312.365 874.334 299.325 868.01 291.327C859.226 280.218 844.97 302.389 841.706 308.136C840.493 310.273 825.199 341.742 833.664 342.649C841.487 343.487 848.848 328.791 851.423 323.438C852.861 320.451 859.738 303.5 855.891 300.374C854.128 298.941 848.706 300.245 847.179 300.765C839.022 303.543 833.416 309.789 828.694 316.737C821.104 327.903 811.518 347.931 821.825 360.632C830.308 371.085 849.007 362.701 857.902 357.504C873.278 348.52 880.077 332.706 881.301 315.564C881.716 309.752 881.132 305.196 874.711 303.445C860.944 299.69 845.761 316.004 839.137 326.007C837.313 328.762 821.315 363.874 833.329 360.576C847.264 356.75 857.832 344.052 864.268 331.815C867.744 325.206 870.321 318.253 871.193 310.817C871.444 308.679 872.411 302.422 871.193 300.318C867.617 294.142 843.991 324.604 842.6 326.901C839.67 331.736 833.257 348.105 843.047 336.283C851.032 326.64 857.067 314.744 860.526 302.719C860.835 301.645 862.483 289.929 861.699 290.489C858.375 292.863 846.614 316.42 853.657 318.021C859.943 319.45 867.263 310.656 870.132 306.405C874.429 300.039 876.442 291.699 876.442 284.011C876.442 281.328 871.34 282.598 869.741 282.782C860.595 283.834 852.612 289.144 849.078 297.861C848.375 299.593 847.008 304.548 849.971 304.674C859.404 305.075 868.448 301.272 874.32 293.672C877.361 289.737 879.346 283.416 879.346 278.37C879.346 271.756 873.404 290.216 871.081 296.409C863.258 317.272 856.149 338.272 852.987 360.408C852.828 361.522 851.267 384.193 852.094 383.752C857.639 380.795 862.897 373.64 866.558 368.729C871.687 361.849 870.964 360.535 863.486 365.769C849.682 375.432 838.333 387.153 830.314 402.069C829.492 403.598 825.512 409.917 827.019 412.178C829.582 416.022 842.811 410.092 845.392 409.05C852.645 406.122 860.039 401.631 862.648 393.804C863.719 390.593 864.304 383.95 859.912 382.747C849.992 380.029 838.453 401.626 834.781 407.654C828.953 417.224 826.153 427.031 825.232 438.09C824.872 442.402 829.858 438.571 831.486 437.42C841.445 430.38 846.578 419.343 849.413 407.766C849.553 407.195 851.854 398.255 849.19 398.384C844.13 398.628 837.762 402.936 833.888 405.364C822.942 412.225 813.743 420.739 806.858 431.724C804.929 434.801 789.777 460.467 796.806 463.612C801.031 465.502 808.068 462.631 811.773 461.155C825.668 455.617 838.622 446.548 849.078 435.912C862.412 422.348 873.907 404.903 873.203 385.204C873.125 383.002 872.843 380.387 871.919 378.335C870.04 374.159 865.429 384.886 862.928 388.722C847.099 413.003 831.658 438.767 823.054 466.627C822.109 469.686 818.616 474.966 821.602 476.121C825.444 477.609 837.683 461.397 838.914 459.814C846.294 450.325 857.569 433.216 856.338 420.164C856.099 417.632 852.265 423.299 850.697 425.301C842.577 435.677 835.615 446.913 829.42 458.53C822.794 470.954 815.295 485.318 813.336 499.521C813.119 501.097 816.438 498.546 817.692 497.566C827.804 489.667 837.884 481.298 846.844 472.1C853.551 465.215 859.402 457.773 863.598 449.092C864.597 447.024 867.746 440.677 867.395 437.699C867.029 434.582 864.623 443.331 863.207 446.132C859.814 452.844 856.362 459.468 853.434 466.404C852.12 469.517 847.492 473.982 850.195 476.01C852.542 477.77 854.001 471.517 855.556 469.029C858.697 464.003 861.656 458.859 864.715 453.783C866.264 451.212 869.91 443.052 869.182 445.964C866.642 456.126 862.622 465.771 858.683 475.451C857.409 478.584 853.882 486.865 856.952 485.448C862.86 482.721 868.94 477.187 873.483 472.715C874.929 471.29 880.183 461.769 879.235 467.744C878.846 470.191 874.055 483.561 876.219 484.722C879.692 486.585 891.587 471.967 893.978 469.141C895.968 466.788 894.348 472.396 896.77 474.334C898.408 475.644 898.552 470.629 898.558 470.313C898.627 466.036 899.229 459.379 895.151 456.575C887.98 451.645 875.479 455.767 869.853 447.64C868.747 446.042 868.158 443.666 867.619 441.832C866.472 437.931 856.084 457.594 855.388 459.758C854.698 461.908 851.79 470.817 855.556 472.659C859.587 474.63 868.057 468.891 870.97 467.298C885.217 459.504 894.944 450.549 895.542 433.567C895.718 428.569 894.565 423.615 888.058 424.966C881.162 426.399 875.836 433.252 871.807 438.314C864.025 448.089 856.814 459.259 852.875 471.207C852.139 473.44 850.771 480.355 851.535 478.132C853.049 473.728 853.82 468.856 855.109 464.394C859.124 450.497 865.812 436.251 866.39 421.616C866.673 414.442 855.61 429.818 855.333 430.104C846.679 439.016 837.799 447.736 829.42 456.91C822.084 464.942 826.435 460.354 821.49 466.348C819.768 468.435 820.481 467.197 821.378 464.785C829.032 444.197 836.937 423.942 838.858 401.846C839.302 396.736 839.758 390.718 839.026 385.539C838.056 378.68 830.668 383.765 827.521 385.986C811.67 397.175 774.854 442.808 786.53 427.312C795.744 415.084 804.916 402.881 813.392 390.118C819.202 381.37 829.669 368.454 831.766 357.448C832.397 354.134 827.77 362.886 825.846 365.658C817.235 378.061 808.089 390.042 799.04 402.125C791.771 411.831 784.876 421.666 778.042 431.668C771.231 441.635 779.815 426.158 780.052 425.748C788.455 411.25 799.905 396.443 804.959 380.289C805.227 379.435 805.803 378.196 805.127 377.609C802.124 374.997 797.811 380.85 794.516 383.082C761.839 405.218 731.091 430.615 701.142 456.24C679.071 475.124 656.998 494.366 637.645 516.107C635.849 518.124 634.294 520.345 632.563 522.418C631.584 523.589 628.697 527.217 631.055 522.865C643.02 500.775 662.03 483.515 678.636 465.064C679.853 463.712 690.652 452.054 679.25 462.662C666.947 474.109 654.664 485.546 642.168 496.784C632.504 505.476 622.651 514.015 614.077 523.814" stroke="#679F69" stroke-width="20" stroke-linecap="round"/>
<path d="M444.194 249.386C420.089 262.605 405.535 282.323 394.156 307.019C391.752 312.236 391.679 311.855 393.876 305.902C398 294.729 404.544 284.258 412.641 275.522C416.339 271.531 420.755 269.537 425.541 267.033C434.368 262.417 442.748 257.056 450.783 251.173C463.733 241.692 477.027 232.827 490.434 224.032C503.825 215.247 521.422 204.009 529.638 189.631C531.842 185.774 540.999 186.057 544.717 186.057C548.159 186.057 548.421 189.239 549.519 192.088C551.574 197.415 554.339 202.82 557.282 207.725C560.881 213.724 564.468 219.932 569.066 225.261C573.019 229.843 578.671 234.036 583.586 237.547C590.539 242.514 596.084 248.55 603.467 252.904C613.712 258.946 621.765 267.434 630.664 274.964C638.833 281.876 644.904 292.428 654.287 297.861C656.347 299.054 658.302 301.415 660.318 302.887C664.335 305.818 668.36 308.806 671.878 312.325C673.601 314.047 675.511 316.985 677.965 317.686C681.038 318.564 678.627 308.307 678.189 306.684C676.826 301.643 675.397 298.453 675.397 293.114C675.397 289.178 673.597 286.357 673.386 282.559C673.29 280.83 667.605 275.522 665.847 275.522C653.688 275.522 644.078 280.012 632.395 282.559C621.666 284.897 610.03 287.585 598.999 287.585" stroke="#679F69" stroke-width="100" stroke-linecap="round"/>
<path d="M237.116 466.516C240.796 459.156 248.966 454.599 254.261 448.422C258.523 443.449 262.149 437.836 265.821 432.45C267.762 429.603 271.092 427.769 273.304 425.078C276.156 421.61 278.956 418.198 282.128 415.026C285.633 411.521 287.839 407.752 291.399 404.192C302.734 392.856 317.368 386.31 329.988 376.659C339.355 369.497 351.848 366.161 362.993 362.977C373.273 360.04 386.236 359.665 396.724 361.637C399.197 362.102 404.859 363.275 406.218 365.993C412.15 377.856 414.903 391.948 412.473 405.141C411.047 412.881 409.722 420.693 408.564 428.485C407.32 436.851 405.169 448.078 408.508 456.24C410.493 461.092 421.52 458.175 424.871 457.804C438.792 456.263 452.427 452.801 465.638 448.198C476.52 444.407 488.457 440.023 497.136 432.115C509.146 421.17 511.953 404.064 512.326 388.666C512.821 368.226 508.968 348.713 501.268 329.805C498.391 322.74 495.022 313.482 486.469 311.878C481.618 310.968 477.344 315.966 474.63 319.138C467.531 327.434 461.931 337.369 458.211 347.619C454.682 357.344 449.684 372.011 462.288 376.436C486.776 385.033 518.594 379.918 540.025 366.105C558.566 354.154 564.033 335.493 562.476 314.279C561.215 297.102 549.98 283.086 532.542 280.883C523.579 279.751 516.381 283.441 508.808 287.976C495.147 296.155 483.48 306.462 473.569 318.915C461.57 333.989 453.559 358.16 462.12 376.994C468.498 391.026 490.577 400.489 504.731 402.181C533.912 405.67 567.121 404.063 591.851 386.097C601.705 378.939 609.679 368.056 610.057 355.605C610.185 351.357 609.631 347.395 603.913 351.138C596.185 356.197 590.354 365.362 585.428 372.806C575.92 387.174 568.004 402.577 563.872 419.382C561.178 430.337 556.287 459.529 573.757 461.713C585.395 463.168 597.408 460.101 608.269 456.24C628.191 449.159 647.737 439.791 666.294 429.713C685.471 419.299 716.553 403.533 720.353 378.837C722.806 362.893 707.22 354.254 694.272 349.351C668.182 339.469 641.088 356.292 630.496 380.624C625.569 391.944 621.403 412.036 631.501 422.286C643.323 434.284 670.833 433.076 685.672 432.896C703.133 432.685 734.853 433.044 736.492 409.553C737.171 399.825 732.45 389.616 725.435 383.026C721.896 379.702 715.869 382.813 712.199 384.31C698.807 389.774 688.063 398.494 679.194 409.888C665.639 427.301 650.19 454.053 657.191 477.294C661.978 493.189 687.218 490.673 699.466 490.195C721.497 489.335 746.804 485.231 760.729 466.292C765.847 459.332 768.152 451.317 769.665 442.949C769.885 441.731 771.754 435.236 770.67 433.79C766.589 428.349 720.58 462.121 735.04 475.563C742.065 482.093 754.793 481.018 763.522 480.366C775.814 479.447 787.517 474.264 794.404 463.668C795.976 461.25 796.451 458.429 798.09 456.073C799.892 453.483 802.804 452.019 804.624 449.371C808.175 444.206 817.16 439.642 822.942 437.811C829.727 435.662 836.887 433.917 843.046 430.104C844.217 429.38 848.657 426.647 849.078 425.301C849.611 423.594 845.328 425.443 843.828 426.418C838.27 430.034 834.599 436.019 831.319 441.608C824.453 453.305 818.946 466.136 813.671 478.579C806.81 494.765 800.565 510.005 797.588 527.444C796.41 534.345 796.506 541.128 795.019 548.051C792.668 558.996 791.743 570.296 789.769 581.335C787.219 595.6 784.966 609.366 784.966 623.89C784.966 634.687 784.966 645.484 784.966 656.281C784.966 669.073 787.982 681.579 787.982 694.256C787.982 704.09 789.436 713.728 790.216 723.52C791.496 739.595 790.998 755.763 790.998 771.882C790.998 798.268 792.859 825.404 796.973 851.463C799.929 870.182 803.061 888.608 803.061 907.477C803.061 914.322 802.055 921.166 802.055 927.916C802.055 933.729 797.56 937.911 795.019 942.995C790 953.032 785.085 958.073 772.848 958.073C754.816 958.073 736.05 959.124 718.565 962.038C714.223 962.762 715.606 931.83 715.606 927.358C715.606 909.436 716.121 892.212 719.068 874.527C722.038 856.707 727.433 835.243 722.195 817.285C720.17 810.342 720.68 802.182 719.403 795.003C717.833 786.172 716.611 777.628 716.611 768.643C716.611 758.535 716.611 748.427 716.611 738.319C716.611 731.181 716.253 720.994 713.986 714.193C711.85 707.785 711.291 703.508 705.051 700.734C700.318 698.631 696.599 697.719 691.033 697.719C673.858 697.719 655.63 695.985 638.65 698.501C616.408 701.796 593.179 699.367 570.741 701.237C553.089 702.708 535.053 701.74 517.352 701.74C501.312 701.74 485.347 703.621 469.324 703.75C449.81 703.907 419.577 701.599 403.482 715.31C394.832 722.678 388.835 731.049 385.667 741.949C382.769 751.919 382.657 762.089 381.646 772.329C379.792 791.1 380.864 810.308 380.864 829.18C380.864 837.967 380.864 846.753 380.864 855.54C380.864 868.102 377.21 881.104 376.061 893.739C374.883 906.705 375.838 920.123 375.838 933.166C375.838 938.713 377.865 949.076 374.386 953.55C370.479 958.573 355.663 958.073 349.479 958.073C341.865 958.073 334.637 957.068 327.028 957.068C315.961 957.068 309.918 947.911 306.254 938.75C301.494 926.851 300.446 912.977 300.446 900.273C300.446 882.772 305.613 866.514 307.426 849.285C309.935 825.453 308.277 801.014 308.488 777.02C308.722 750.322 309.505 723.118 313.067 696.658C316.548 670.796 322.561 644.576 322.561 618.361C322.561 600.351 324.571 582.534 324.571 564.47C324.571 544.496 324.571 524.521 324.571 504.547C324.571 491.278 325.287 479.446 331.384 467.521C333.982 462.441 337.525 456.728 341.325 452.443C345.248 448.019 351.148 448.422 356.515 448.422C363.852 448.422 372.022 447.354 379.245 448.924C382.21 449.569 382.688 452.262 383.656 454.9C386.675 463.123 389.532 471.514 391.14 480.142C392.234 486.018 392.927 492.187 392.927 498.181C392.927 501.377 391.508 505.669 395.496 505.72C410.002 505.906 424.418 506.725 438.944 506.725C454.748 506.725 470.553 506.725 486.357 506.725C498.713 506.725 510.909 503.709 523.216 503.709C537.122 503.709 551.027 503.709 564.933 503.709C585.524 503.709 605.517 505.125 626.029 506.502C648.597 508.016 672.431 511.546 694.161 518.006C705.448 521.362 722.737 524.357 731.689 532.861C737.84 538.704 741.304 544.494 744.701 552.351C746.331 556.12 752.233 571.432 748.052 574.522C745.884 576.125 743.09 576.07 740.513 576.086C731.186 576.142 721.856 575.257 712.59 574.299C700.583 573.057 688.545 572.303 676.513 571.283C660.024 569.886 643.455 567.984 626.922 567.262C600.491 566.108 574.583 562.305 548.291 559.667C526.256 557.456 504.665 555.003 482.56 553.468C463.279 552.129 443.519 552.538 424.201 553.021C406.323 553.468 390.145 558.76 375.503 569.049C365.541 576.049 355.404 587.22 354.784 599.932C354.212 611.647 354.459 628.099 361.765 638.187C364.833 642.424 373.956 643.668 378.407 644.888C395.431 649.556 412.012 650.473 429.562 650.473C438.383 650.473 447.165 651.366 455.977 651.366C464.731 651.366 473.142 648.873 481.834 648.518C500.825 647.743 519.963 648.462 538.964 648.462C567.802 648.462 596.509 647.457 625.358 647.457C649.409 647.457 673.46 647.457 697.512 647.457C702.747 647.457 725.434 650.363 726.663 645.447" stroke="#679F69" stroke-width="100" stroke-linecap="round"/>
</svg>
